<svg width="25" height="24" viewBox="0 0 25 24" fill="none" xmlns="http://www.w3.org/2000/svg">
<g clip-path="url(#clip0_15_47)">
<path d="M18.0895 4.5C16.1314 4.5 14.0226 4.9 12.5666 6C11.1105 4.9 9.00179 4.5 7.04367 4.5C5.58763 4.5 4.04121 4.72 2.74584 5.29C2.01279 5.62 1.52075 6.33 1.52075 7.14V18.42C1.52075 19.72 2.74584 20.68 4.01109 20.36C4.99517 20.11 6.0395 20 7.04367 20C8.61017 20 10.2771 20.26 11.6227 20.92C12.2252 21.22 12.908 21.22 13.5005 20.92C14.846 20.25 16.513 20 18.0795 20C19.0836 20 20.128 20.11 21.112 20.36C22.3773 20.69 23.6024 19.73 23.6024 18.42V7.14C23.6024 6.33 23.1103 5.62 22.3773 5.29C21.092 4.72 19.5455 4.5 18.0895 4.5ZM21.6041 17.23C21.6041 17.86 21.0217 18.32 20.3991 18.21C19.646 18.07 18.8627 18.01 18.0895 18.01C16.3824 18.01 13.9222 18.66 12.5666 19.51V8C13.9222 7.15 16.3824 6.5 18.0895 6.5C19.0133 6.5 19.9271 6.59 20.8008 6.78C21.2627 6.88 21.6041 7.29 21.6041 7.76V17.23Z" fill="#FFE400"/>
<path d="M14.5549 11.01C14.2336 11.01 13.9424 10.81 13.8419 10.49C13.7114 10.1 13.9323 9.66998 14.3239 9.54998C15.8704 9.04998 17.8686 8.88998 19.7063 9.09998C20.118 9.14998 20.4192 9.51998 20.369 9.92998C20.3188 10.34 19.9473 10.64 19.5356 10.59C17.9088 10.4 16.1314 10.55 14.7859 10.98C14.7055 10.99 14.6252 11.01 14.5549 11.01Z" fill="#1448CC"/>
<path d="M14.5549 13.67C14.2336 13.67 13.9424 13.47 13.8419 13.15C13.7114 12.76 13.9323 12.33 14.3239 12.21C15.8603 11.71 17.8686 11.55 19.7063 11.76C20.118 11.81 20.4192 12.18 20.369 12.59C20.3188 13 19.9473 13.3 19.5356 13.25C17.9088 13.06 16.1314 13.21 14.7859 13.64C14.7055 13.66 14.6252 13.67 14.5549 13.67Z" fill="#FFE400"/>
<path d="M14.5549 16.33C14.2336 16.33 13.9424 16.13 13.8419 15.81C13.7114 15.42 13.9323 14.99 14.3239 14.87C15.8603 14.37 17.8686 14.21 19.7063 14.42C20.118 14.47 20.4192 14.84 20.369 15.25C20.3188 15.66 19.9473 15.95 19.5356 15.91C17.9088 15.72 16.1314 15.87 14.7859 16.3C14.7055 16.32 14.6252 16.33 14.5549 16.33Z" fill="#FFE400"/>
</g>
<rect x="1.0166" y="0.5" width="23.1" height="23" stroke="black"/>
<defs>
<clipPath id="clip0_15_47">
<rect x="0.516602" width="24.1" height="24" fill="white"/>
</clipPath>
</defs>
</svg>
