<svg width="25" height="24" viewBox="0 0 25 24" fill="none" xmlns="http://www.w3.org/2000/svg">
<g clip-path="url(#clip0_15_57)">
<path d="M13.2193 15.67C13.3599 15.31 13.2695 14.9 12.9883 14.62L10.8896 12.56L10.9198 12.53C12.667 10.59 13.9122 8.36 14.6452 6H16.5933C17.1355 6 17.5874 5.55 17.5874 5.01V4.99C17.5874 4.45 17.1355 4 16.5933 4H10.5583V3C10.5583 2.45 10.1064 2 9.55408 2C9.00179 2 8.54992 2.45 8.54992 3V4H2.51488C1.97263 4 1.52075 4.45 1.52075 4.99C1.52075 5.54 1.97263 5.98 2.51488 5.98H12.7373C12.0645 7.92 11.0001 9.75 9.55408 11.35C8.74071 10.46 8.05788 9.49 7.4855 8.47C7.32483 8.18 7.03363 8 6.70225 8C6.00938 8 5.56754 8.75 5.90896 9.35C6.54158 10.48 7.31479 11.56 8.21854 12.56L3.83034 16.87C3.42867 17.26 3.42867 17.9 3.83034 18.29C4.22196 18.68 4.85458 18.68 5.25625 18.29L9.55408 14L11.5825 16.02C12.0946 16.53 12.9683 16.34 13.2193 15.67V15.67ZM18.0895 10C17.487 10 16.9448 10.37 16.7339 10.94L13.0486 20.74C12.8076 21.35 13.2695 22 13.9222 22C14.3138 22 14.6653 21.76 14.8059 21.39L15.6996 19H20.4694L21.3731 21.39C21.5137 21.75 21.8652 22 22.2568 22C22.9095 22 23.3714 21.35 23.1405 20.74L19.4552 10.94C19.2343 10.37 18.692 10 18.0895 10V10ZM16.4628 17L18.0895 12.67L19.7163 17H16.4628V17Z" fill="#1448CC"/>
</g>
<defs>
<clipPath id="clip0_15_57">
<rect width="24.1" height="24" fill="white" transform="translate(0.516602)"/>
</clipPath>
</defs>
</svg>
